<svg id="visual" viewBox="0 0 900 900" width="900" height="900" xmlns="http://www.w3.org/2000/svg" xmlns:xlink="http://www.w3.org/1999/xlink" version="1.1"><rect width="900" height="900" fill="#2C3333"></rect><g><g transform="translate(7 486)"><path d="M0 -59.5L59.5 0L0 59.5L-59.5 0Z" fill="none" stroke="#2E4F4F" stroke-width="2"></path></g><g transform="translate(173 419)"><path d="M0 -45L45 0L0 45L-45 0Z" fill="none" stroke="#2E4F4F" stroke-width="2"></path></g><g transform="translate(176 734)"><path d="M0 -57L57 0L0 57L-57 0Z" fill="none" stroke="#2E4F4F" stroke-width="2"></path></g><g transform="translate(700 277)"><path d="M0 -10L10 0L0 10L-10 0Z" fill="none" stroke="#2E4F4F" stroke-width="2"></path></g><g transform="translate(504 172)"><path d="M0 -14L14 0L0 14L-14 0Z" fill="none" stroke="#2E4F4F" stroke-width="2"></path></g><g transform="translate(479 341)"><path d="M0 -12L12 0L0 12L-12 0Z" fill="none" stroke="#2E4F4F" stroke-width="2"></path></g><g transform="translate(121 73)"><path d="M0 -48L48 0L0 48L-48 0Z" fill="none" stroke="#2E4F4F" stroke-width="2"></path></g><g transform="translate(359 490)"><path d="M0 -35L35 0L0 35L-35 0Z" fill="none" stroke="#2E4F4F" stroke-width="2"></path></g><g transform="translate(858 847)"><path d="M0 -24L24 0L0 24L-24 0Z" fill="none" stroke="#2E4F4F" stroke-width="2"></path></g><g transform="translate(549 452)"><path d="M0 -8L8 0L0 8L-8 0Z" fill="none" stroke="#2E4F4F" stroke-width="2"></path></g><g transform="translate(787 19)"><path d="M0 -45L45 0L0 45L-45 0Z" fill="none" stroke="#2E4F4F" stroke-width="2"></path></g><g transform="translate(686 702)"><path d="M0 -11L11 0L0 11L-11 0Z" fill="none" stroke="#2E4F4F" stroke-width="2"></path></g><g transform="translate(604 106)"><path d="M0 -31L31 0L0 31L-31 0Z" fill="none" stroke="#2E4F4F" stroke-width="2"></path></g><g transform="translate(78 341)"><path d="M0 -8L8 0L0 8L-8 0Z" fill="none" stroke="#2E4F4F" stroke-width="2"></path></g><g transform="translate(381 695)"><path d="M0 -20L20 0L0 20L-20 0Z" fill="none" stroke="#2E4F4F" stroke-width="2"></path></g><g transform="translate(152 877)"><path d="M0 -20L20 0L0 20L-20 0Z" fill="none" stroke="#2E4F4F" stroke-width="2"></path></g><g transform="translate(169 238)"><path d="M0 -48L48 0L0 48L-48 0Z" fill="none" stroke="#2E4F4F" stroke-width="2"></path></g><g transform="translate(387 103)"><path d="M0 -29L29 0L0 29L-29 0Z" fill="none" stroke="#2E4F4F" stroke-width="2"></path></g><g transform="translate(322 212)"><path d="M0 -26L26 0L0 26L-26 0Z" fill="none" stroke="#2E4F4F" stroke-width="2"></path></g><g transform="translate(685 427)"><path d="M0 -47L47 0L0 47L-47 0Z" fill="none" stroke="#2E4F4F" stroke-width="2"></path></g><g transform="translate(364 820)"><path d="M0 -10L10 0L0 10L-10 0Z" fill="none" stroke="#2E4F4F" stroke-width="2"></path></g><g transform="translate(240 623)"><path d="M0 -17L17 0L0 17L-17 0Z" fill="none" stroke="#2E4F4F" stroke-width="2"></path></g><g transform="translate(891 705)"><path d="M0 -8L8 0L0 8L-8 0Z" fill="none" stroke="#2E4F4F" stroke-width="2"></path></g><g transform="translate(719 875)"><path d="M0 -42L42 0L0 42L-42 0Z" fill="none" stroke="#2E4F4F" stroke-width="2"></path></g><g transform="translate(867 416)"><path d="M0 -33L33 0L0 33L-33 0Z" fill="none" stroke="#2E4F4F" stroke-width="2"></path></g><g transform="translate(92 628)"><path d="M0 -52L52 0L0 52L-52 0Z" fill="none" stroke="#2E4F4F" stroke-width="2"></path></g><g transform="translate(892 282)"><path d="M0 -53L53 0L0 53L-53 0Z" fill="none" stroke="#2E4F4F" stroke-width="2"></path></g><g transform="translate(277 45)"><path d="M0 -13L13 0L0 13L-13 0Z" fill="none" stroke="#2E4F4F" stroke-width="2"></path></g><g transform="translate(874 540)"><path d="M0 -41L41 0L0 41L-41 0Z" fill="none" stroke="#2E4F4F" stroke-width="2"></path></g><g transform="translate(600 587)"><path d="M0 -51L51 0L0 51L-51 0Z" fill="none" stroke="#2E4F4F" stroke-width="2"></path></g><g transform="translate(38 831)"><path d="M0 -20L20 0L0 20L-20 0Z" fill="none" stroke="#2E4F4F" stroke-width="2"></path></g><g transform="translate(484 845)"><path d="M0 -46L46 0L0 46L-46 0Z" fill="none" stroke="#2E4F4F" stroke-width="2"></path></g><g transform="translate(545 717)"><path d="M0 -44L44 0L0 44L-44 0Z" fill="none" stroke="#2E4F4F" stroke-width="2"></path></g><g transform="translate(29 217)"><path d="M0 -22L22 0L0 22L-22 0Z" fill="none" stroke="#2E4F4F" stroke-width="2"></path></g><g transform="translate(297 356)"><path d="M0 -15L15 0L0 15L-15 0Z" fill="none" stroke="#2E4F4F" stroke-width="2"></path></g><g transform="translate(820 145)"><path d="M0 -46L46 0L0 46L-46 0Z" fill="none" stroke="#2E4F4F" stroke-width="2"></path></g><g transform="translate(596 890)"><path d="M0 -18L18 0L0 18L-18 0Z" fill="none" stroke="#2E4F4F" stroke-width="2"></path></g><g transform="translate(475 597)"><path d="M0 -19L19 0L0 19L-19 0Z" fill="none" stroke="#2E4F4F" stroke-width="2"></path></g><g transform="translate(729 579)"><path d="M0 -39L39 0L0 39L-39 0Z" fill="none" stroke="#2E4F4F" stroke-width="2"></path></g><g transform="translate(487 18)"><path d="M0 -34L34 0L0 34L-34 0Z" fill="none" stroke="#2E4F4F" stroke-width="2"></path></g><g transform="translate(7 2)"><path d="M0 -45L45 0L0 45L-45 0Z" fill="none" stroke="#2E4F4F" stroke-width="2"></path></g></g></svg>